<svg width="226" height="144" viewBox="0 0 226 144" fill="none" xmlns="http://www.w3.org/2000/svg">
<path d="M151.4 133.061C145.489 134.952 139.162 131.675 137.297 125.757C135.43 119.838 138.721 113.486 144.633 111.594C150.544 109.703 156.87 112.979 158.736 118.898C160.601 124.816 157.311 131.17 151.4 133.061Z" fill="#697C86"/>
<path d="M149.144 125.905C147.173 126.536 145.065 125.445 144.443 123.471C143.821 121.497 144.917 119.38 146.889 118.75C148.86 118.119 150.967 119.211 151.589 121.185C152.212 123.159 151.116 125.274 149.144 125.905Z" fill="#465A61"/>
<path d="M201.902 116.903C195.991 118.794 189.664 115.518 187.798 109.6C185.932 103.681 189.224 97.3279 195.135 95.4368C201.045 93.5457 207.372 96.8213 209.238 102.74C211.104 108.658 207.813 115.012 201.902 116.903Z" fill="#596C76"/>
<path d="M199.646 109.747C197.675 110.378 195.567 109.287 194.945 107.313C194.323 105.339 195.419 103.223 197.391 102.592C199.362 101.961 201.469 103.053 202.091 105.027C202.714 107.001 201.618 109.116 199.646 109.747Z" fill="#3B4A51"/>
<path d="M205.298 88.2462C205.93 90.2499 204.854 92.3273 202.853 92.9673L134.485 114.841C128.553 116.739 122.253 113.476 120.381 107.537C118.667 102.1 121.247 96.311 126.332 93.9754C126.716 93.6947 127.217 93.5345 127.717 93.3744C128.574 93.1002 129.545 93.1844 130.298 93.5733L130.116 100.485C130.045 100.508 130.045 100.508 129.973 100.531C127.972 101.171 126.896 103.247 127.527 105.251C128.159 107.255 130.228 108.326 132.229 107.686L200.597 85.8121C202.598 85.1721 204.666 86.2424 205.298 88.2462Z" fill="#465A61"/>
<path d="M107.795 50.647C108.1 51.0098 113.086 51.314 116.851 52.8526C116.721 52.3976 116.612 51.9405 116.415 51.4966L107.476 31.314C106.451 28.9978 104.8 27.6481 103.505 28.0625L86.9591 33.3558C85.4348 33.8434 84.9295 36.5819 85.8295 39.4781C86.7291 42.373 88.6909 44.3222 90.2153 43.8345L102.571 39.4559L107.795 50.647Z" fill="#465A61"/>
<path d="M204.823 88.3983C205.371 90.1392 204.441 91.9354 202.703 92.4914L169.565 103.094L167.609 96.8902L200.747 86.288C202.485 85.732 204.274 86.6575 204.823 88.3983Z" fill="#3B4A51" stroke="#3B4A51" stroke-width="0.998048" stroke-linecap="round" stroke-linejoin="round"/>
<path d="M197.326 23.2797C196.318 22.5777 195.159 22.3968 194.015 22.7626L99.3473 53.0505L126.332 99.7144L130.116 106.224L197.769 84.579C199.342 84.076 200.432 82.5447 200.387 80.9048L198.889 26.2446C198.837 25.0798 198.239 23.9319 197.326 23.2797Z" fill="#3DCA76"/>
<path d="M198.889 26.2446L200.388 80.9048C200.432 82.5447 199.342 84.0759 197.769 84.579L164.728 95.1502L146.681 37.9066L194.015 22.7626C195.159 22.3968 196.318 22.5776 197.326 23.2797C198.239 23.9319 198.838 25.0798 198.889 26.2446Z" fill="#3ECD76"/>
<line x1="1" y1="-1" x2="9" y2="-1" transform="matrix(-0.94413 0.329574 -0.327616 -0.944811 102.56 69.5803)" stroke="#3DCA76" stroke-width="2" stroke-linecap="round" stroke-linejoin="round"/>
<line x1="1" y1="-1" x2="4" y2="-1" transform="matrix(-0.94413 0.329574 -0.327616 -0.944811 91.161 73.832)" stroke="#3DCA76" stroke-width="2" stroke-linecap="round" stroke-linejoin="round"/>
<line x1="97.3679" y1="83.9182" x2="95.7977" y2="84.5036" stroke="#3DCA76" stroke-width="2" stroke-linecap="round" stroke-linejoin="round"/>
<line x1="100.039" y1="92.5497" x2="96.2626" y2="93.8681" stroke="#3DCA76" stroke-width="2" stroke-linecap="round" stroke-linejoin="round"/>
<line x1="95.2652" y1="104.683" x2="91.4887" y2="106.001" stroke="#3DCA76" stroke-width="2" stroke-linecap="round" stroke-linejoin="round"/>
<line x1="99.0011" y1="102.938" x2="99.9452" y2="102.609" stroke="#3DCA76" stroke-width="2" stroke-linecap="round" stroke-linejoin="round"/>
<line x1="92.6239" y1="85.8407" x2="86.9591" y2="87.8182" stroke="#3DCA76" stroke-width="2" stroke-linecap="round" stroke-linejoin="round"/>
<line x1="1" y1="-1" x2="9.66421" y2="-1" transform="matrix(-0.94413 0.329574 -0.327616 -0.944811 111.484 87.5782)" stroke="#3DCA76" stroke-width="2" stroke-linecap="round" stroke-linejoin="round"/>
<line x1="107.921" y1="79.9265" x2="100.508" y2="82.5845" stroke="#3DCA76" stroke-width="2" stroke-linecap="round" stroke-linejoin="round"/>
<line x1="1" y1="-1" x2="14" y2="-1" transform="matrix(-0.94413 0.329574 -0.327616 -0.944811 116.006 95.3389)" stroke="#3DCA76" stroke-width="2" stroke-linecap="round" stroke-linejoin="round"/>
<rect width="11.9053" height="27.9273" transform="matrix(0.999739 -0.0228522 0.0225187 0.999746 187.386 47.3791)" fill="#3ABB72"/>
<ellipse cx="165.527" cy="51.3854" rx="4.79817" ry="4.29652" fill="#3ABB72"/>
<rect width="14.9277" height="9.49671" rx="4.74836" transform="matrix(0.999998 -0.00197068 0.00194191 0.999998 176.844 47.3362)" fill="#3ABB72"/>
<rect width="22.3915" height="9.06609" rx="4.53305" transform="matrix(0.999954 -0.00964145 0.0095007 0.999955 172.919 66.2351)" fill="#3ABB72"/>
<rect x="176.723" y="56.7561" width="15.9939" height="9.66718" rx="4.83359" fill="#3ECD76"/>
<rect x="14" y="21" width="67" height="117" rx="10" fill="#00A7FF"/>
<line x1="44" y1="133" x2="52" y2="133" stroke="white" stroke-width="4" stroke-linecap="round"/>
<rect x="19.0925" y="28.7408" width="57.5047" height="99.6629" rx="5" fill="#E8E8E8"/>
<path d="M41.8319 24.8704C41.8319 25.4048 41.4098 25.838 40.8892 25.838C40.3685 25.838 39.9465 25.4048 39.9465 24.8704C39.9465 24.336 40.3685 23.9028 40.8892 23.9028C41.4098 23.9028 41.8319 24.336 41.8319 24.8704Z" fill="white"/>
<line x1="44.7172" y1="24.838" x2="54.9723" y2="24.838" stroke="white" stroke-width="2" stroke-linecap="round"/>
<path d="M67.9874 110.067L68.6301 72.6405C68.6457 71.1318 68.1059 69.6054 66.9942 68.4252L52.845 53.4042C50.6114 51.0329 46.9294 50.9157 44.6168 53.1424L29.9675 67.2472C28.806 68.3655 28.2144 69.8558 28.1988 71.3645L27.5557 108.812C27.53 110.31 28.0698 111.836 29.1815 113.017C30.2932 114.197 31.7849 114.827 33.266 114.874L62.0645 115.791C63.5561 115.828 65.0572 115.303 66.2082 114.195C67.3697 113.076 67.9614 111.586 67.9874 110.067ZM45.4131 66.6979C43.7354 64.9168 43.7833 62.1291 45.5203 60.4566C47.2573 58.7841 50.0137 58.8718 51.6914 60.653C53.3692 62.4341 53.3213 65.2218 51.5843 66.8942C49.8472 68.5667 47.0908 68.4789 45.4131 66.6979Z" fill="black"/>
<rect width="33.6707" height="40.4484" rx="5" transform="matrix(0.994632 0.00555365 -0.011592 1.00526 31.4762 69.493)" fill="#3ECD76"/>
<path d="M44.0412 75.1254L34.9678 74.9384L34.7048 84.9144L43.7782 85.1014L44.0412 75.1254ZM41.7052 82.7101L36.9016 82.6111L37.0409 77.3297L41.8444 77.4287L41.7052 82.7101ZM40.4095 81.2155L38.2746 81.1715L38.3365 78.8242L40.4714 78.8682L40.4095 81.2155ZM53.2213 75.3146L52.9583 85.2906L62.0317 85.4776L62.2947 75.5016L53.2213 75.3146ZM59.9586 83.0863L55.1551 82.9873L55.2943 77.7059L60.0979 77.8049L59.9586 83.0863ZM58.663 81.5917L56.5281 81.5477L56.59 79.2004L58.7249 79.2444L58.663 81.5917ZM34.1757 104.984L43.249 105.171L43.5121 95.1948L34.4387 95.0078L34.1757 104.984ZM36.5117 97.3991L41.3153 97.4981L41.176 102.779L36.3725 102.68L36.5117 97.3991ZM37.8074 98.8936L39.9423 98.9376L39.8804 101.285L37.7455 101.241L37.8074 98.8936ZM38.9329 86.5868L38.871 88.9341L36.7361 88.8901L36.7979 86.5428L38.9329 86.5868ZM38.871 88.9341L41.0059 88.9781L40.944 91.3254L43.0255 91.3683L42.9636 93.7156L40.8287 93.6716L40.8906 91.3243L38.8091 91.2814L38.871 88.9341ZM51.8661 82.1562L49.7312 82.1122L49.7931 79.7649L51.928 79.8089L51.8661 82.1562ZM47.7154 77.5497L47.5963 82.0682L45.4614 82.0242L45.5805 77.5057L47.7154 77.5497ZM49.8503 77.5937L47.7154 77.5497L47.7773 75.2024L49.9122 75.2464L49.8503 77.5937ZM49.7312 82.1122L49.6074 86.8068L45.3376 86.7188L45.3995 84.3715L47.5344 84.4155L47.5963 82.0682L49.7312 82.1122ZM45.1519 93.7607L45.2757 89.0661L47.4106 89.1101L47.2884 93.746L49.4233 93.79L49.3629 96.0786L53.6328 96.1666L53.5709 98.5139L49.3011 98.4259L49.3614 96.1373L47.2265 96.0933L47.2868 93.8047L45.1519 93.7607ZM51.7423 86.8508L51.6185 91.5454L49.4836 91.5014L49.6074 86.8068L51.7423 86.8508ZM59.855 87.018L55.9588 86.9377L55.8969 89.285L53.8153 89.2421L53.7534 91.5894L55.8884 91.6334L55.828 93.922L61.8058 94.0452L61.9295 89.3506L59.7946 89.3066L59.855 87.018ZM59.7327 91.6539L55.8899 91.5747L55.9502 89.2861L59.7931 89.3653L59.7327 91.6539ZM61.6216 101.028L59.4867 100.984L59.6105 96.2898L61.7454 96.3338L61.6216 101.028ZM51.6185 91.5454L53.7534 91.5894L53.6916 93.9367L51.5566 93.8927L51.6185 91.5454ZM53.509 100.861L53.5709 98.5139L55.7058 98.5579L55.6439 100.905L53.509 100.861ZM57.8407 98.6019L55.7058 98.5579L55.7677 96.2106L57.9026 96.2546L57.8407 98.6019ZM55.5248 105.424L55.6439 100.905L59.4867 100.984L59.4248 103.332L57.7169 103.297L57.6597 105.468L55.5248 105.424ZM45.0916 96.0493L47.2265 96.0933L47.1089 100.553L44.974 100.509L45.0916 96.0493ZM46.9851 105.248L47.1089 100.553L51.3787 100.641L51.3168 102.988L53.3984 103.031L53.3365 105.379L51.2016 105.335L51.2635 102.987L49.1819 102.944L49.12 105.292L46.9851 105.248ZM41.0678 86.6308L45.3376 86.7188L45.2757 89.0661L41.0059 88.9781L41.0678 86.6308ZM34.6011 88.8461L36.7361 88.8901L36.6123 93.5847L34.4774 93.5407L34.6011 88.8461Z" fill="black"/>
<line x1="21.806" y1="86.1165" x2="73.806" y2="86.1165" stroke="#FF0A0A" stroke-width="2.5"/>
<path d="M50 63C62.855 63.4221 134.041 38.7387 109.769 34.7997" stroke="black" stroke-width="2" stroke-linecap="round"/>
<path d="M52.0589 63.5C52.0589 65.3489 50.5817 66.8478 48.7595 66.8478C46.9372 66.8478 45.46 65.3489 45.46 63.5C45.46 61.6511 46.9372 60.1522 48.7595 60.1522C50.5817 60.1522 52.0589 61.6511 52.0589 63.5Z" fill="black"/>
</svg>
